<svg width="972.18125px" height="122px" xmlns="http://www.w3.org/2000/svg" viewBox="-236.090625 14 972.18125 122" style="background: rgba(0, 0, 0, 0);" preserveAspectRatio="xMidYMid"><defs><filter id="editing-golden" x="-100%" y="-100%" width="300%" height="300%"><feFlood flood-color="#806527" result="flood"></feFlood><feFlood flood-color="#fff694" result="flood-light"></feFlood><feComposite operator="in" in="flood" in2="SourceAlpha" result="flood-comp"></feComposite><feGaussianBlur in="flood-comp" stdDeviation="3" result="blur"></feGaussianBlur><feOffset in="blur" dy="3" result="offset-blur"></feOffset><feComponentTransfer in="offset-blur" result="comp-blur"><feFuncA type="linear" slope="0.7" intercept="-0.1"></feFuncA></feComponentTransfer><feSpecularLighting surfaceScale="200" specularConstant="20" specularExponent="1" lighting-color="#fff" in="blur" result="specular"><fePointLight x="-250" y="-250" z="3500"></fePointLight></feSpecularLighting><feComponentTransfer in="specular" result="inspecular"><feFuncA type="linear" slope="-1" intercept="1"></feFuncA></feComponentTransfer><feComposite operator="in" in="flood-light" in2="inspecular" result="inspecular2"></feComposite><feComposite operator="in" in="inspecular2" in2="SourceAlpha" result="light"></feComposite><feMerge><feMergeNode in="comp-blur"></feMergeNode><feMergeNode in="SourceGraphic"></feMergeNode><feMergeNode in="light"></feMergeNode></feMerge></filter></defs><g filter="url(#editing-golden)"><g transform="translate(-99.69500517845154, 99)"><path d="M28.42-9.86L28.42-9.86L28.42-9.86Q29.63-8.32 29.63-5.82L29.63-5.82L29.63-5.82Q29.63-2.37 27.07-0.54L27.07-0.54L27.07-0.54Q24.51 1.28 20.48 1.28L20.48 1.28L20.48 1.28Q18.18 1.28 14.66 0.77L14.66 0.77L14.66 0.77Q7.74-0.32 5.63-0.32L5.63-0.32L5.63-0.32Q3.52-0.32 2.69-0.22L2.69-0.22L2.69-0.22Q1.86-0.13 0.51 0L0.51 0L8.38-42.24L35.97-42.24L35.97-42.24Q35.97-38.34 34.08-36.29L34.08-36.29L34.08-36.29Q32.19-34.24 28.48-34.24L28.48-34.24L28.48-34.24Q24.77-34.24 20.99-35.97L20.99-35.97L19.01-24.77L30.40-24.77L30.40-24.77Q30.40-21.38 28.74-19.49L28.74-19.49L28.74-19.49Q27.07-17.60 24.29-17.60L24.29-17.60L24.29-17.60Q21.50-17.60 19.78-18.24L19.78-18.24L19.78-18.24Q18.05-18.88 17.86-19.07L17.86-19.07L15.55-6.98L15.55-6.98Q17.09-6.78 19.97-6.78L19.97-6.78L19.97-6.78Q24.90-6.78 28.42-9.86ZM44.03 0.19L44.03 0.19L44.03 0.19Q41.98 1.28 39.17 1.28L39.17 1.28L39.17 1.28Q36.35 1.28 34.82-0.16L34.82-0.16L34.82-0.16Q33.28-1.60 33.28-4.38L33.28-4.38L33.28-4.38Q33.28-7.17 35.23-9.89L35.23-9.89L35.23-9.89Q37.18-12.61 40.10-14.14L40.10-14.14L40.10-14.14Q43.01-15.68 45.06-16.58L45.06-16.58L41.02-25.86L41.02-25.86Q39.94-28.22 37.89-28.22L37.89-28.22L37.38-28.16L37.18-28.16L37.18-28.16Q37.57-30.40 40.19-32.13L40.19-32.13L40.19-32.13Q42.82-33.92 45.82-33.92L45.82-33.92L45.82-33.92Q50.69-33.92 52.93-29.06L52.93-29.06L53.44-28.03L56.19-21.25L56.19-21.25Q57.92-22.02 58.66-23.46L58.66-23.46L58.66-23.46Q59.39-24.90 59.39-27.74L59.39-27.74L59.39-27.74Q59.39-30.59 57.86-32.38L57.86-32.38L57.86-32.38Q60.29-33.92 63.49-33.92L63.49-33.92L63.49-33.92Q69.25-33.92 69.25-28.35L69.25-28.35L69.25-28.35Q69.25-22.27 61.63-18.75L61.63-18.75L57.79-16.96L61.25-8.06L61.25-8.06Q62.27-5.38 64.13-4.22L64.13-4.22L64.13-4.22Q64.90-3.71 65.79-3.65L65.79-3.65L65.79-3.65Q63.87-0.51 59.71 0.90L59.71 0.90L59.71 0.90Q58.43 1.28 56.70 1.28L56.70 1.28L56.70 1.28Q54.98 1.28 52.99 0.10L52.99 0.10L52.99 0.10Q51.01-1.09 50.30-2.94L50.30-2.94L46.78-12.10L46.78-12.10Q43.20-10.50 43.20-4.67L43.20-4.67L43.20-4.67Q43.20-1.98 44.03 0.19ZM102.08-26.62L102.08-26.62L102.08-26.62Q102.08-23.94 99.84-22.27L99.84-22.27L99.84-22.27Q97.60-20.61 93.95-20.61L93.95-20.61L93.95-20.61Q92.42-20.61 91.52-21.06L91.52-21.06L91.52-21.06Q92.22-22.72 92.45-24.80L92.45-24.80L92.45-24.80Q92.67-26.88 92.67-27.46L92.67-27.46L92.67-27.46Q92.67-30.14 90.82-30.14L90.82-30.14L90.82-30.14Q89.54-30.14 88.10-28.54L88.10-28.54L88.10-28.54Q86.66-26.94 85.44-24.45L85.44-24.45L85.44-24.45Q82.75-18.69 82.75-12.86L82.75-12.86L82.75-12.86Q82.75-9.66 83.97-8.22L83.97-8.22L83.97-8.22Q85.18-6.78 87.87-6.78L87.87-6.78L87.87-6.78Q91.58-6.78 94.53-9.86L94.53-9.86L94.53-9.86Q95.36-10.82 95.81-11.90L95.81-11.90L95.81-11.90Q98.24-10.62 98.24-7.10L98.24-7.10L98.24-7.10Q98.24-3.52 94.27-1.15L94.27-1.15L94.27-1.15Q90.18 1.28 83.65 1.28L83.65 1.28L83.65 1.28Q70.66 1.28 70.66-12.48L70.66-12.48L70.66-12.48Q70.66-22.53 76.35-28.29L76.35-28.29L76.35-28.29Q81.86-33.92 91.97-33.92L91.97-33.92L91.97-33.92Q102.08-33.92 102.08-26.62ZM119.10-3.52L119.10-3.52L119.10-3.52Q117.12 1.28 110.78 1.28L110.78 1.28L110.78 1.28Q107.58 1.28 105.54-0.96L105.54-0.96L105.54-0.96Q103.87-2.82 103.87-4.93L103.87-4.93L103.87-4.93Q103.87-9.73 106.11-20.22L106.11-20.22L110.78-44.80L123.78-46.08L117.57-13.70L117.57-13.70Q116.48-8.96 116.48-7.30L116.48-7.30L116.48-7.30Q116.48-3.65 119.10-3.52ZM145.09-2.69L145.09-2.69L145.09-2.69Q142.02 1.28 134.40 1.28L134.40 1.28L134.40 1.28Q130.43 1.28 127.55-1.12L127.55-1.12L127.55-1.12Q124.67-3.52 124.67-6.98L124.67-6.98L124.67-6.98Q124.67-8.90 124.86-9.86L124.86-9.86L129.15-32.64L142.14-33.92L137.47-9.22L137.47-9.22Q137.22-7.81 137.22-6.98L137.22-6.98L137.22-6.98Q137.22-3.26 139.46-3.26L139.46-3.26L139.46-3.26Q141.95-3.26 143.74-6.66L143.74-6.66L143.74-6.66Q144.32-7.74 144.58-9.15L144.58-9.15L149.12-32.64L161.73-33.92L156.99-8.96L156.99-8.96Q156.80-8 156.80-6.98L156.80-6.98L156.80-6.98Q156.80-5.95 157.38-4.83L157.38-4.83L157.38-4.83Q157.95-3.71 159.81-3.46L159.81-3.46L159.81-3.46Q159.42-1.92 158.08-0.90L158.08-0.90L158.08-0.90Q155.26 1.28 152.22 1.28L152.22 1.28L152.22 1.28Q149.18 1.28 147.39 0.19L147.39 0.19L147.39 0.19Q145.60-0.90 145.09-2.69ZM184.32-22.46L184.32-22.46L184.32-22.46Q185.22-24.83 185.22-26.88L185.22-26.88L185.22-26.88Q185.22-30.66 182.14-30.66L182.14-30.66L182.14-30.66Q180.54-30.66 179.23-29.22L179.23-29.22L179.23-29.22Q177.92-27.78 177.92-25.98L177.92-25.98L177.92-25.98Q177.92-24.70 178.94-23.68L178.94-23.68L178.94-23.68Q180.42-22.27 184.19-19.97L184.19-19.97L184.19-19.97Q187.97-17.66 189.41-15.78L189.41-15.78L189.41-15.78Q190.85-13.89 190.85-11.30L190.85-11.30L190.85-11.30Q190.85-8.70 189.60-6.34L189.60-6.34L189.60-6.34Q188.35-3.97 186.11-2.30L186.11-2.30L186.11-2.30Q181.31 1.28 173.63 1.28L173.63 1.28L173.63 1.28Q169.47 1.28 166.27-0.90L166.27-0.90L166.27-0.90Q163.07-3.01 163.07-5.50L163.07-5.50L163.07-5.50Q163.07-8 164.90-9.47L164.90-9.47L164.90-9.47Q166.72-10.94 169.41-10.94L169.41-10.94L169.41-10.94Q172.10-10.94 173.76-9.92L173.76-9.92L173.76-9.92Q172.93-7.81 172.93-6.40L172.93-6.40L172.93-6.40Q172.93-2.18 176.51-2.18L176.51-2.18L176.51-2.18Q178.05-2.18 179.07-3.14L179.07-3.14L179.07-3.14Q180.10-4.10 180.10-5.76L180.10-5.76L180.10-5.76Q180.10-9.02 174.59-12.48L174.59-12.48L174.59-12.48Q170.11-15.42 169.09-16.58L169.09-16.58L169.09-16.58Q167.36-18.62 167.36-21.18L167.36-21.18L167.36-21.18Q167.36-23.74 168.58-26.18L168.58-26.18L168.58-26.18Q169.79-28.61 172.03-30.34L172.03-30.34L172.03-30.34Q176.70-33.92 184.83-33.92L184.83-33.92L184.83-33.92Q188.99-33.92 191.46-32.26L191.46-32.26L191.46-32.26Q193.92-30.59 193.92-27.78L193.92-27.78L193.92-27.78Q193.92-24.96 192.22-23.36L192.22-23.36L192.22-23.36Q190.53-21.76 187.46-21.76L187.46-21.76L187.46-21.76Q185.34-21.76 184.32-22.46ZM211.65-3.52L211.65-3.52L211.65-3.52Q209.66 1.28 203.33 1.28L203.33 1.28L203.33 1.28Q200.06 1.28 198.02-0.96L198.02-0.96L198.02-0.96Q196.29-2.94 196.29-4.93L196.29-4.93L196.29-4.93Q196.29-10.11 198.66-20.22L198.66-20.22L201.02-32.64L214.02-33.92L210.11-13.70L210.11-13.70Q209.02-8.96 209.02-7.30L209.02-7.30L209.02-7.30Q209.02-3.65 211.65-3.52ZM202.18-41.54L202.18-41.54L202.18-41.54Q202.18-44.03 204.26-45.38L204.26-45.38L204.26-45.38Q206.34-46.72 209.34-46.72L209.34-46.72L209.34-46.72Q212.35-46.72 214.18-45.38L214.18-45.38L214.18-45.38Q216-44.03 216-41.54L216-41.54L216-41.54Q216-39.04 213.98-37.76L213.98-37.76L213.98-37.76Q211.97-36.48 208.96-36.48L208.96-36.48L208.96-36.48Q205.95-36.48 204.06-37.76L204.06-37.76L204.06-37.76Q202.18-39.04 202.18-41.54ZM240.32-31.55L240.32-31.55L240.32-31.55Q242.43-33.92 246.08-33.92L246.08-33.92L246.08-33.92Q248.32-33.92 250.05-32.70L250.05-32.70L250.05-32.70Q251.78-31.49 251.78-29.22L251.78-29.22L251.78-29.22Q251.78-26.94 251.07-24.51L251.07-24.51L251.07-24.51Q250.37-22.08 249.28-19.58L249.28-19.58L249.28-19.58Q247.10-14.72 244.10-10.69L244.10-10.69L244.10-10.69Q239.87-4.86 235.81-1.79L235.81-1.79L235.81-1.79Q231.74 1.28 227.33 1.28L227.33 1.28L227.33 1.28Q223.74 1.28 221.57 0.45L221.57 0.45L221.57 0.45Q221.18-12.99 220.70-17.79L220.70-17.79L220.70-17.79Q220.22-22.59 219.84-25.22L219.84-25.22L219.84-25.22Q219.20-30.34 217.28-31.55L217.28-31.55L217.28-31.55Q218.75-32.83 220.19-33.38L220.19-33.38L220.19-33.38Q221.63-33.92 224.61-33.92L224.61-33.92L224.61-33.92Q227.58-33.92 229.70-31.58L229.70-31.58L229.70-31.58Q231.81-29.25 232.22-25.12L232.22-25.12L232.22-25.12Q232.64-20.99 232.64-16L232.64-16L232.64-16Q232.64-11.01 232.26-4.99L232.26-4.99L232.26-4.99Q234.24-6.40 236.35-10.69L236.35-10.69L236.35-10.69Q239.23-16.64 240.26-23.81L240.26-23.81L240.26-23.81Q240.58-25.98 240.58-28.29L240.58-28.29L240.58-28.29Q240.58-30.59 240.32-31.55ZM279.42-10.82L279.42-10.82L279.42-10.82Q281.02-9.73 281.02-7.33L281.02-7.33L281.02-7.33Q281.02-4.93 279.81-3.39L279.81-3.39L279.81-3.39Q278.59-1.86 276.61-0.83L276.61-0.83L276.61-0.83Q272.51 1.28 268.10 1.28L268.10 1.28L268.10 1.28Q263.68 1.28 261.09 0.32L261.09 0.32L261.09 0.32Q258.50-0.64 256.77-2.43L256.77-2.43L256.77-2.43Q253.38-5.82 253.38-12.03L253.38-12.03L253.38-12.03Q253.38-21.70 258.62-27.58L258.62-27.58L258.62-27.58Q264.26-33.92 274.05-33.92L274.05-33.92L274.05-33.92Q280.13-33.92 283.14-31.36L283.14-31.36L283.14-31.36Q285.38-29.44 285.38-26.30L285.38-26.30L285.38-26.30Q285.38-15.04 265.92-15.04L265.92-15.04L265.92-15.04Q265.66-13.38 265.66-11.97L265.66-11.97L265.66-11.97Q265.66-9.02 266.98-7.90L266.98-7.90L266.98-7.90Q268.29-6.78 270.72-6.78L270.72-6.78L270.72-6.78Q273.15-6.78 275.74-7.90L275.74-7.90L275.74-7.90Q278.34-9.02 279.42-10.82ZM266.37-17.79L266.37-17.79L266.37-17.79Q270.91-17.79 273.54-20.61L273.54-20.61L273.54-20.61Q276.16-23.30 276.16-27.58L276.16-27.58L276.16-27.58Q276.16-29.06 275.62-29.86L275.62-29.86L275.62-29.86Q275.07-30.66 273.98-30.66L273.98-30.66L273.98-30.66Q272.90-30.66 271.97-30.24L271.97-30.24L271.97-30.24Q271.04-29.82 270.08-28.42L270.08-28.42L270.08-28.42Q267.71-25.22 266.37-17.79ZM305.86-31.17L305.86-31.17L305.86-31.17Q303.68-32.83 303.68-36.38L303.68-36.38L303.68-36.38Q303.68-39.94 306.02-41.79L306.02-41.79L306.02-41.79Q308.35-43.65 312.38-43.65L312.38-43.65L312.38-43.65Q314.94-43.65 321.02-42.75L321.02-42.75L325.38-42.11L325.38-42.11Q327.55-41.86 329.82-41.86L329.82-41.86L329.82-41.86Q332.10-41.86 333.63-42.82L333.63-42.82L333.63-42.82Q335.94-40.77 335.94-37.82L335.94-37.82L335.94-37.82Q335.94-34.88 333.31-32.77L333.31-32.77L333.31-32.77Q330.62-30.53 327.17-30.53L327.17-30.53L327.17-30.53Q325.50-30.53 322.82-30.98L322.82-30.98L322.82-30.98Q319.68-21.12 319.68-14.27L319.68-14.27L319.68-14.27Q319.68-7.42 323.14-3.84L323.14-3.84L323.14-3.84Q321.54-0.96 319.17 0.16L319.17 0.16L319.17 0.16Q316.80 1.28 313.25 1.28L313.25 1.28L313.25 1.28Q309.70 1.28 307.49-0.67L307.49-0.67L307.49-0.67Q305.28-2.62 305.28-6.66L305.28-6.66L305.28-6.66Q305.28-11.33 307.84-19.01L307.84-19.01L307.84-19.01Q310.40-26.62 314.24-32.45L314.24-32.45L314.24-32.45Q312.38-32.64 310.46-32.64L310.46-32.64L310.46-32.64Q306.50-32.64 305.86-31.17ZM333.73-1.92L333.73-1.92L333.73-1.92Q332.22-3.58 331.55-6.21L331.55-6.21L331.55-6.21Q330.88-8.83 330.88-13.12L330.88-13.12L330.88-13.12Q330.88-17.41 332.35-21.31L332.35-21.31L332.35-21.31Q333.82-25.22 336.51-28.03L336.51-28.03L336.51-28.03Q342.02-33.92 351.10-33.92L351.10-33.92L351.10-33.92Q354.37-33.92 356.74-32.83L356.74-32.83L367.68-33.92L362.94-8.96L362.94-8.96Q362.75-8.19 362.75-6.78L362.75-6.78L362.75-6.78Q362.75-5.38 363.62-4.48L363.62-4.48L363.62-4.48Q364.48-3.58 365.76-3.46L365.76-3.46L365.76-3.46Q365.12-1.28 362.78 0L362.78 0L362.78 0Q360.45 1.28 357.82 1.28L357.82 1.28L357.82 1.28Q355.20 1.28 353.44 0.29L353.44 0.29L353.44 0.29Q351.68-0.70 351.17-2.37L351.17-2.37L351.17-2.37Q350.14-0.77 347.97 0.26L347.97 0.26L347.97 0.26Q345.79 1.28 342.88 1.28L342.88 1.28L342.88 1.28Q339.97 1.28 337.60 0.51L337.60 0.51L337.60 0.51Q335.23-0.26 333.73-1.92ZM347.23-27.90L347.23-27.90L347.23-27.90Q346.50-26.75 345.86-24.80L345.86-24.80L345.86-24.80Q345.22-22.85 344.16-17.63L344.16-17.63L344.16-17.63Q343.10-12.42 343.10-8.70L343.10-8.70L343.10-8.70Q343.10-4.99 343.68-3.90L343.68-3.90L343.68-3.90Q344.26-2.82 345.28-2.82L345.28-2.82L345.28-2.82Q347.33-2.82 348.83-4.77L348.83-4.77L348.83-4.77Q350.34-6.72 350.91-10.18L350.91-10.18L354.30-28.93L354.30-28.93Q352.96-30.08 351.39-30.08L351.39-30.08L351.39-30.08Q349.82-30.08 348.90-29.57L348.90-29.57L348.90-29.57Q347.97-29.06 347.23-27.90ZM379.65 0.19L379.65 0.19L379.65 0.19Q377.60 1.28 374.78 1.28L374.78 1.28L374.78 1.28Q371.97 1.28 370.43-0.16L370.43-0.16L370.43-0.16Q368.90-1.60 368.90-4.38L368.90-4.38L368.90-4.38Q368.90-7.17 370.85-9.89L370.85-9.89L370.85-9.89Q372.80-12.61 375.71-14.14L375.71-14.14L375.71-14.14Q378.62-15.68 380.67-16.58L380.67-16.58L376.64-25.86L376.64-25.86Q375.55-28.22 373.50-28.22L373.50-28.22L372.99-28.16L372.80-28.16L372.80-28.16Q373.18-30.40 375.81-32.13L375.81-32.13L375.81-32.13Q378.43-33.92 381.44-33.92L381.44-33.92L381.44-33.92Q386.30-33.92 388.54-29.06L388.54-29.06L389.06-28.03L391.81-21.25L391.81-21.25Q393.54-22.02 394.27-23.46L394.27-23.46L394.27-23.46Q395.01-24.90 395.01-27.74L395.01-27.74L395.01-27.74Q395.01-30.59 393.47-32.38L393.47-32.38L393.47-32.38Q395.90-33.92 399.10-33.92L399.10-33.92L399.10-33.92Q404.86-33.92 404.86-28.35L404.86-28.35L404.86-28.35Q404.86-22.27 397.25-18.75L397.25-18.75L393.41-16.96L396.86-8.06L396.86-8.06Q397.89-5.38 399.74-4.22L399.74-4.22L399.74-4.22Q400.51-3.71 401.41-3.65L401.41-3.65L401.41-3.65Q399.49-0.51 395.33 0.90L395.33 0.90L395.33 0.90Q394.05 1.28 392.32 1.28L392.32 1.28L392.32 1.28Q390.59 1.28 388.61 0.10L388.61 0.10L388.61 0.10Q386.62-1.09 385.92-2.94L385.92-2.94L382.40-12.10L382.40-12.10Q378.82-10.50 378.82-4.67L378.82-4.67L378.82-4.67Q378.82-1.98 379.65 0.19ZM421.95-3.52L421.95-3.52L421.95-3.52Q419.97 1.28 413.63 1.28L413.63 1.28L413.63 1.28Q410.37 1.28 408.32-0.96L408.32-0.96L408.32-0.96Q406.59-2.94 406.59-4.93L406.59-4.93L406.59-4.93Q406.59-10.11 408.96-20.22L408.96-20.22L411.33-32.64L424.32-33.92L420.42-13.70L420.42-13.70Q419.33-8.96 419.33-7.30L419.33-7.30L419.33-7.30Q419.33-3.65 421.95-3.52ZM412.48-41.54L412.48-41.54L412.48-41.54Q412.48-44.03 414.56-45.38L414.56-45.38L414.56-45.38Q416.64-46.72 419.65-46.72L419.65-46.72L419.65-46.72Q422.66-46.72 424.48-45.38L424.48-45.38L424.48-45.38Q426.30-44.03 426.30-41.54L426.30-41.54L426.30-41.54Q426.30-39.04 424.29-37.76L424.29-37.76L424.29-37.76Q422.27-36.48 419.26-36.48L419.26-36.48L419.26-36.48Q416.26-36.48 414.37-37.76L414.37-37.76L414.37-37.76Q412.48-39.04 412.48-41.54ZM465.54-29.57L465.54-29.57L465.54-29.57Q466.50-31.49 466.50-33.28L466.50-33.28L466.50-33.28Q466.50-35.07 466.30-36.06L466.30-36.06L466.30-36.06Q466.11-37.06 465.66-37.82L465.66-37.82L465.66-37.82Q464.70-39.49 462.78-39.49L462.78-39.49L462.78-39.49Q460.42-39.49 458.50-37.76L458.50-37.76L458.50-37.76Q456.45-35.97 456.45-33.15L456.45-33.15L456.45-33.15Q456.45-31.36 457.70-29.98L457.70-29.98L457.70-29.98Q458.94-28.61 460.86-27.33L460.86-27.33L460.86-27.33Q462.78-26.05 464.96-24.77L464.96-24.77L464.96-24.77Q467.14-23.49 469.06-21.95L469.06-21.95L469.06-21.95Q473.47-18.43 473.47-13.70L473.47-13.70L473.47-13.70Q473.47-10.50 471.78-7.78L471.78-7.78L471.78-7.78Q470.08-5.06 467.26-3.07L467.26-3.07L467.26-3.07Q461.12 1.28 452.99 1.28L452.99 1.28L452.99 1.28Q446.40 1.28 443.01-0.86L443.01-0.86L443.01-0.86Q439.62-3.01 439.62-6.27L439.62-6.27L439.62-6.27Q439.62-12.10 444.16-13.57L444.16-13.57L444.16-13.57Q445.44-14.02 447.39-14.02L447.39-14.02L447.39-14.02Q449.34-14.02 451.58-13.18L451.58-13.18L451.58-13.18Q450.56-10.56 450.56-8.19L450.56-8.19L450.56-8.19Q450.56-3.07 454.21-3.07L454.21-3.07L454.21-3.07Q456.58-3.07 458.53-4.80L458.53-4.80L458.53-4.80Q460.48-6.53 460.48-8.48L460.48-8.48L460.48-8.48Q460.48-10.43 459.23-11.84L459.23-11.84L459.23-11.84Q457.98-13.25 456.13-14.37L456.13-14.37L456.13-14.37Q454.27-15.49 452.13-16.58L452.13-16.58L452.13-16.58Q449.98-17.66 448.13-19.20L448.13-19.20L448.13-19.20Q443.78-22.72 443.78-28.35L443.78-28.35L443.78-28.35Q443.78-32 445.57-34.85L445.57-34.85L445.57-34.85Q447.36-37.70 450.24-39.62L450.24-39.62L450.24-39.62Q456.00-43.52 463.07-43.52L463.07-43.52L463.07-43.52Q470.14-43.52 473.57-41.41L473.57-41.41L473.57-41.41Q476.99-39.30 476.99-35.71L476.99-35.71L476.99-35.71Q476.99-32.58 474.56-30.59L474.56-30.59L474.56-30.59Q472.45-28.93 469.89-28.93L469.89-28.93L469.89-28.93Q467.33-28.93 465.54-29.57ZM504.26-10.82L504.26-10.82L504.26-10.82Q505.86-9.73 505.86-7.33L505.86-7.33L505.86-7.33Q505.86-4.93 504.64-3.39L504.64-3.39L504.64-3.39Q503.42-1.86 501.44-0.83L501.44-0.83L501.44-0.83Q497.34 1.28 492.93 1.28L492.93 1.28L492.93 1.28Q488.51 1.28 485.92 0.32L485.92 0.32L485.92 0.32Q483.33-0.64 481.60-2.43L481.60-2.43L481.60-2.43Q478.21-5.82 478.21-12.03L478.21-12.03L478.21-12.03Q478.21-21.70 483.46-27.58L483.46-27.58L483.46-27.58Q489.09-33.92 498.88-33.92L498.88-33.92L498.88-33.92Q504.96-33.92 507.97-31.36L507.97-31.36L507.97-31.36Q510.21-29.44 510.21-26.30L510.21-26.30L510.21-26.30Q510.21-15.04 490.75-15.04L490.75-15.04L490.75-15.04Q490.50-13.38 490.50-11.97L490.50-11.97L490.50-11.97Q490.50-9.02 491.81-7.90L491.81-7.90L491.81-7.90Q493.12-6.78 495.55-6.78L495.55-6.78L495.55-6.78Q497.98-6.78 500.58-7.90L500.58-7.90L500.58-7.90Q503.17-9.02 504.26-10.82ZM491.20-17.79L491.20-17.79L491.20-17.79Q495.74-17.79 498.37-20.61L498.37-20.61L498.37-20.61Q500.99-23.30 500.99-27.58L500.99-27.58L500.99-27.58Q500.99-29.06 500.45-29.86L500.45-29.86L500.45-29.86Q499.90-30.66 498.82-30.66L498.82-30.66L498.82-30.66Q497.73-30.66 496.80-30.24L496.80-30.24L496.80-30.24Q495.87-29.82 494.91-28.42L494.91-28.42L494.91-28.42Q492.54-25.22 491.20-17.79ZM532.42-17.98L532.42-17.98L532.42-17.98Q534.72-22.08 534.72-26.24L534.72-26.24L534.72-26.24Q534.72-28.99 532.74-28.99L532.74-28.99L532.74-28.99Q531.20-28.99 529.60-26.37L529.60-26.37L529.60-26.37Q527.94-23.74 527.42-20.35L527.42-20.35L524.10 0L510.85 1.28L517.38-32.64L527.94-33.92L526.78-27.46L526.78-27.46Q529.92-33.92 536.96-33.92L536.96-33.92L536.96-33.92Q540.67-33.92 542.69-32L542.69-32L542.69-32Q544.70-30.08 544.70-26.14L544.70-26.14L544.70-26.14Q544.70-22.21 542.11-19.71L542.11-19.71L542.11-19.71Q539.52-17.22 535.10-17.22L535.10-17.22L535.10-17.22Q533.18-17.22 532.42-17.98ZM568.96-31.55L568.96-31.55L568.96-31.55Q571.07-33.92 574.72-33.92L574.72-33.92L574.72-33.92Q576.96-33.92 578.69-32.70L578.69-32.70L578.69-32.70Q580.42-31.49 580.42-29.22L580.42-29.22L580.42-29.22Q580.42-26.94 579.71-24.51L579.71-24.51L579.71-24.51Q579.01-22.08 577.92-19.58L577.92-19.58L577.92-19.58Q575.74-14.72 572.74-10.69L572.74-10.69L572.74-10.69Q568.51-4.86 564.45-1.79L564.45-1.79L564.45-1.79Q560.38 1.28 555.97 1.28L555.97 1.28L555.97 1.28Q552.38 1.28 550.21 0.45L550.21 0.45L550.21 0.45Q549.82-12.99 549.34-17.79L549.34-17.79L549.34-17.79Q548.86-22.59 548.48-25.22L548.48-25.22L548.48-25.22Q547.84-30.34 545.92-31.55L545.92-31.55L545.92-31.55Q547.39-32.83 548.83-33.38L548.83-33.38L548.83-33.38Q550.27-33.92 553.25-33.92L553.25-33.92L553.25-33.92Q556.22-33.92 558.34-31.58L558.34-31.58L558.34-31.58Q560.45-29.25 560.86-25.12L560.86-25.12L560.86-25.12Q561.28-20.99 561.28-16L561.28-16L561.28-16Q561.28-11.01 560.90-4.99L560.90-4.99L560.90-4.99Q562.88-6.40 564.99-10.69L564.99-10.69L564.99-10.69Q567.87-16.64 568.90-23.81L568.90-23.81L568.90-23.81Q569.22-25.98 569.22-28.29L569.22-28.29L569.22-28.29Q569.22-30.59 568.96-31.55ZM597.50-3.52L597.50-3.52L597.50-3.52Q595.52 1.28 589.18 1.28L589.18 1.28L589.18 1.28Q585.92 1.28 583.87-0.96L583.87-0.96L583.87-0.96Q582.14-2.94 582.14-4.93L582.14-4.93L582.14-4.93Q582.14-10.11 584.51-20.22L584.51-20.22L586.88-32.64L599.87-33.92L595.97-13.70L595.97-13.70Q594.88-8.96 594.88-7.30L594.88-7.30L594.88-7.30Q594.88-3.65 597.50-3.52ZM588.03-41.54L588.03-41.54L588.03-41.54Q588.03-44.03 590.11-45.38L590.11-45.38L590.11-45.38Q592.19-46.72 595.20-46.72L595.20-46.72L595.20-46.72Q598.21-46.72 600.03-45.38L600.03-45.38L600.03-45.38Q601.86-44.03 601.86-41.54L601.86-41.54L601.86-41.54Q601.86-39.04 599.84-37.76L599.84-37.76L599.84-37.76Q597.82-36.48 594.82-36.48L594.82-36.48L594.82-36.48Q591.81-36.48 589.92-37.76L589.92-37.76L589.92-37.76Q588.03-39.04 588.03-41.54ZM634.37-26.62L634.37-26.62L634.37-26.62Q634.37-23.94 632.13-22.27L632.13-22.27L632.13-22.27Q629.89-20.61 626.24-20.61L626.24-20.61L626.24-20.61Q624.70-20.61 623.81-21.06L623.81-21.06L623.81-21.06Q624.51-22.72 624.74-24.80L624.74-24.80L624.74-24.80Q624.96-26.88 624.96-27.46L624.96-27.46L624.96-27.46Q624.96-30.14 623.10-30.14L623.10-30.14L623.10-30.14Q621.82-30.14 620.38-28.54L620.38-28.54L620.38-28.54Q618.94-26.94 617.73-24.45L617.73-24.45L617.73-24.45Q615.04-18.69 615.04-12.86L615.04-12.86L615.04-12.86Q615.04-9.66 616.26-8.22L616.26-8.22L616.26-8.22Q617.47-6.78 620.16-6.78L620.16-6.78L620.16-6.78Q623.87-6.78 626.82-9.86L626.82-9.86L626.82-9.86Q627.65-10.82 628.10-11.90L628.10-11.90L628.10-11.90Q630.53-10.62 630.53-7.10L630.53-7.10L630.53-7.10Q630.53-3.52 626.56-1.15L626.56-1.15L626.56-1.15Q622.46 1.28 615.94 1.28L615.94 1.28L615.94 1.28Q602.94 1.28 602.94-12.48L602.94-12.48L602.94-12.48Q602.94-22.53 608.64-28.29L608.64-28.29L608.64-28.29Q614.14-33.92 624.26-33.92L624.26-33.92L624.26-33.92Q634.37-33.92 634.37-26.62ZM662.02-10.82L662.02-10.82L662.02-10.82Q663.62-9.73 663.62-7.33L663.62-7.33L663.62-7.33Q663.62-4.93 662.40-3.39L662.40-3.39L662.40-3.39Q661.18-1.86 659.20-0.83L659.20-0.83L659.20-0.83Q655.10 1.28 650.69 1.28L650.69 1.28L650.69 1.28Q646.27 1.28 643.68 0.32L643.68 0.32L643.68 0.32Q641.09-0.64 639.36-2.43L639.36-2.43L639.36-2.43Q635.97-5.82 635.97-12.03L635.97-12.03L635.97-12.03Q635.97-21.70 641.22-27.58L641.22-27.58L641.22-27.58Q646.85-33.92 656.64-33.92L656.64-33.92L656.64-33.92Q662.72-33.92 665.73-31.36L665.73-31.36L665.73-31.36Q667.97-29.44 667.97-26.30L667.97-26.30L667.97-26.30Q667.97-15.04 648.51-15.04L648.51-15.04L648.51-15.04Q648.26-13.38 648.26-11.97L648.26-11.97L648.26-11.97Q648.26-9.02 649.57-7.90L649.57-7.90L649.57-7.90Q650.88-6.78 653.31-6.78L653.31-6.78L653.31-6.78Q655.74-6.78 658.34-7.90L658.34-7.90L658.34-7.90Q660.93-9.02 662.02-10.82ZM648.96-17.79L648.96-17.79L648.96-17.79Q653.50-17.79 656.13-20.61L656.13-20.61L656.13-20.61Q658.75-23.30 658.75-27.58L658.75-27.58L658.75-27.58Q658.75-29.06 658.21-29.86L658.21-29.86L658.21-29.86Q657.66-30.66 656.58-30.66L656.58-30.66L656.58-30.66Q655.49-30.66 654.56-30.24L654.56-30.24L654.56-30.24Q653.63-29.82 652.67-28.42L652.67-28.42L652.67-28.42Q650.30-25.22 648.96-17.79ZM689.28-22.46L689.28-22.46L689.28-22.46Q690.18-24.83 690.18-26.88L690.18-26.88L690.18-26.88Q690.18-30.66 687.10-30.66L687.10-30.66L687.10-30.66Q685.50-30.66 684.19-29.22L684.19-29.22L684.19-29.22Q682.88-27.78 682.88-25.98L682.88-25.98L682.88-25.98Q682.88-24.70 683.90-23.68L683.90-23.68L683.90-23.68Q685.38-22.27 689.15-19.97L689.15-19.97L689.15-19.97Q692.93-17.66 694.37-15.78L694.37-15.78L694.37-15.78Q695.81-13.89 695.81-11.30L695.81-11.30L695.81-11.30Q695.81-8.70 694.56-6.34L694.56-6.34L694.56-6.34Q693.31-3.97 691.07-2.30L691.07-2.30L691.07-2.30Q686.27 1.28 678.59 1.28L678.59 1.28L678.59 1.28Q674.43 1.28 671.23-0.90L671.23-0.90L671.23-0.90Q668.03-3.01 668.03-5.50L668.03-5.50L668.03-5.50Q668.03-8 669.86-9.47L669.86-9.47L669.86-9.47Q671.68-10.94 674.37-10.94L674.37-10.94L674.37-10.94Q677.06-10.94 678.72-9.92L678.72-9.92L678.72-9.92Q677.89-7.81 677.89-6.40L677.89-6.40L677.89-6.40Q677.89-2.18 681.47-2.18L681.47-2.18L681.47-2.18Q683.01-2.18 684.03-3.14L684.03-3.14L684.03-3.14Q685.06-4.10 685.06-5.76L685.06-5.76L685.06-5.76Q685.06-9.02 679.55-12.48L679.55-12.48L679.55-12.48Q675.07-15.42 674.05-16.58L674.05-16.58L674.05-16.58Q672.32-18.62 672.32-21.18L672.32-21.18L672.32-21.18Q672.32-23.74 673.54-26.18L673.54-26.18L673.54-26.18Q674.75-28.61 676.99-30.34L676.99-30.34L676.99-30.34Q681.66-33.92 689.79-33.92L689.79-33.92L689.79-33.92Q693.95-33.92 696.42-32.26L696.42-32.26L696.42-32.26Q698.88-30.59 698.88-27.78L698.88-27.78L698.88-27.78Q698.88-24.96 697.18-23.36L697.18-23.36L697.18-23.36Q695.49-21.76 692.42-21.76L692.42-21.76L692.42-21.76Q690.30-21.76 689.28-22.46Z" fill="#f7c61d"></path></g></g><style>text {
  font-size: 256px;
  font-family: Arial Black;
  dominant-baseline: central;
  text-anchor: middle;
}</style></svg>